<svg width="354" height="114" viewBox="0 0 354 114" fill="none" xmlns="http://www.w3.org/2000/svg">
<path d="M147.002 78.7703C142.808 78.7703 139.11 77.9149 135.91 76.204C132.709 74.438 130.225 71.9821 128.459 68.8363C126.748 65.6353 125.893 61.9377 125.893 57.7433C125.893 53.6041 126.748 49.9341 128.459 46.7331C130.225 43.4769 132.709 40.9658 135.91 39.1998C139.11 37.4338 142.808 36.5507 147.002 36.5507C149.541 36.5507 151.914 36.937 154.122 37.7097C156.385 38.4272 158.261 39.4206 159.751 40.6899V16.3516H176.308V77.5285H160.331V73.8861C158.675 75.4866 156.688 76.7007 154.37 77.5285C152.107 78.3564 149.652 78.7703 147.002 78.7703ZM151.473 65.9389C153.349 65.9389 155.005 65.4973 156.44 64.6143C157.93 63.7313 159.034 62.5171 159.751 60.9719V54.432C159.034 52.8867 157.93 51.6725 156.44 50.7895C155.005 49.9065 153.349 49.465 151.473 49.465C148.879 49.465 146.809 50.21 145.264 51.7001C143.774 53.135 143.029 55.1494 143.029 57.7433C143.029 60.3372 143.774 62.3516 145.264 63.7865C146.809 65.2214 148.879 65.9389 151.473 65.9389Z" fill="#4CAE4F"/>
<path d="M317.656 94.2327C315.724 94.2327 313.71 94.0947 311.613 93.8187C309.515 93.5428 307.97 93.1565 306.977 92.6598V80.4078C308.688 81.0701 310.564 81.4012 312.606 81.4012C314.372 81.4012 315.724 81.0149 316.662 80.2423C317.601 79.5248 318.346 78.421 318.897 76.9309L319.643 75.0269L302.424 38.1055H318.98L328.418 62.361L337.275 38.1055H353.915L338.02 78.7522C335.923 84.0503 333.274 87.9411 330.073 90.4246C326.872 92.9633 322.733 94.2327 317.656 94.2327Z" fill="#4CAE4F"/>
<path d="M254.946 38.1053H270.923V41.7478C272.579 40.2025 274.565 39.016 276.883 38.1881C279.201 37.3051 281.657 36.8636 284.251 36.8636C288.446 36.8636 292.143 37.7466 295.344 39.5127C298.545 41.2235 301.001 43.6794 302.712 46.8804C304.478 50.0813 305.361 53.779 305.361 57.9734C305.361 62.1125 304.478 65.7826 302.712 68.9836C301.001 72.1845 298.545 74.668 295.344 76.4341C292.143 78.2001 288.446 79.0832 284.251 79.0832C281.768 79.0832 279.395 78.6968 277.132 77.9242C274.869 77.2067 272.993 76.2409 271.502 75.0268V95.971H254.946V38.1053ZM279.781 66.2517C282.375 66.2517 284.417 65.5343 285.907 64.0993C287.452 62.6092 288.225 60.5397 288.225 57.8906C288.225 55.2967 287.452 53.2823 285.907 51.8474C284.417 50.4125 282.375 49.695 279.781 49.695C277.904 49.695 276.221 50.1641 274.731 51.1023C273.296 51.9854 272.22 53.1995 271.502 54.7448V61.2019C272.22 62.7472 273.296 63.989 274.731 64.9272C276.221 65.8102 277.904 66.2517 279.781 66.2517Z" fill="#4CAE4F"/>
<path d="M220.719 79.0832C215.642 79.0832 211.558 77.9242 208.467 75.6062C205.432 73.2331 203.914 69.8666 203.914 65.5067C203.914 61.0364 205.404 57.6422 208.385 55.3243C211.365 52.9512 215.697 51.7646 221.382 51.7646C223.424 51.7646 225.493 51.9854 227.59 52.4269C229.688 52.8684 231.454 53.4203 232.889 54.0826V53.3375C232.889 51.5163 231.978 50.1365 230.157 49.1983C228.391 48.2601 225.907 47.791 222.706 47.791C217.905 47.791 213.49 48.7568 209.461 50.6884V39.761C211.282 38.878 213.655 38.1881 216.58 37.6914C219.505 37.1395 222.623 36.8636 225.935 36.8636C233.606 36.8636 239.456 38.3261 243.485 41.2511C247.514 44.1761 249.528 48.3153 249.528 53.6686V77.8414H233.882V74.6956C232.557 76.0202 230.736 77.0688 228.418 77.8414C226.1 78.6692 223.534 79.0832 220.719 79.0832ZM225.852 69.4803C227.342 69.4803 228.722 69.2043 229.991 68.6524C231.26 68.1005 232.226 67.3831 232.889 66.5001V63.4371C230.847 62.1125 228.529 61.4503 225.935 61.4503C224.389 61.4503 223.175 61.809 222.292 62.5265C221.464 63.2439 221.05 64.2373 221.05 65.5067C221.05 66.7208 221.464 67.6866 222.292 68.4041C223.12 69.1215 224.307 69.4803 225.852 69.4803Z" fill="#4CAE4F"/>
<path d="M191.076 33.6351C188.592 33.6351 186.523 32.8348 184.867 31.2343C183.211 29.6339 182.383 27.5919 182.383 25.1084C182.383 22.7352 183.211 20.7208 184.867 19.0652C186.578 17.4095 188.647 16.5817 191.076 16.5817C193.504 16.5817 195.546 17.4095 197.202 19.0652C198.913 20.7208 199.768 22.7352 199.768 25.1084C199.768 27.5367 198.913 29.5787 197.202 31.2343C195.546 32.8348 193.504 33.6351 191.076 33.6351ZM179.817 96.9644C176.395 96.9644 173.581 96.4401 171.373 95.3915V82.229C173.029 83.0568 174.988 83.4707 177.251 83.4707C178.962 83.4707 180.314 83.0016 181.307 82.0634C182.301 81.1804 182.797 79.8006 182.797 77.9242V38.1054H199.437V79.9938C199.437 85.5679 197.616 89.7899 193.973 92.6597C190.386 95.5295 185.667 96.9644 179.817 96.9644Z" fill="#4CAE4F"/>
<path fill-rule="evenodd" clip-rule="evenodd" d="M47.3399 0.596962C48.7185 -0.198988 50.4171 -0.198988 51.7957 0.596963L94.3697 25.1771L72.147 37.8757C71.6291 37.4625 71.0768 37.085 70.4929 36.7479L56.2515 28.5256C52.1156 26.1378 47.02 26.1378 42.8841 28.5256L28.6427 36.7479C28.0588 37.085 27.5065 37.4625 26.9886 37.8757L4.76591 25.1771L47.3399 0.596962ZM76.863 45.4448L99.1356 32.7176V80.3756L76.863 67.6485C77.0693 66.7135 77.1766 65.7488 77.1766 64.7689V48.3244C77.1766 47.3444 77.0693 46.3798 76.863 45.4448ZM72.147 75.2175L94.3697 87.9162L51.7957 112.496C50.4171 113.292 48.7185 113.292 47.3399 112.496L4.76592 87.9162L26.9886 75.2175C27.5065 75.6307 28.0588 76.0082 28.6427 76.3454L42.8841 84.5676C47.02 86.9555 52.1156 86.9555 56.2515 84.5676L70.4929 76.3454C71.0768 76.0082 71.6291 75.6307 72.147 75.2175ZM22.2726 67.6485L0 80.3757V32.7176L22.2726 45.4448C22.0663 46.3798 21.959 47.3444 21.959 48.3244V64.7689C21.959 65.7488 22.0663 66.7135 22.2726 67.6485ZM47.3399 36.2433C48.7185 35.4473 50.4171 35.4473 51.7957 36.2433L66.0371 44.4655C67.4157 45.2615 68.265 46.7325 68.265 48.3244V64.7689C68.265 66.3608 67.4157 67.8318 66.0371 68.6277L51.7957 76.85C50.4171 77.6459 48.7185 77.6459 47.3399 76.85L33.0985 68.6277C31.7199 67.8318 30.8706 66.3608 30.8706 64.7689V48.3244C30.8706 46.7325 31.7199 45.2615 33.0985 44.4655L47.3399 36.2433Z" fill="#4CAE4F"/>
</svg>
