<svg width="354" height="114" viewBox="0 0 354 114" fill="none" xmlns="http://www.w3.org/2000/svg">
<path d="M147.088 78.7703C142.893 78.7703 139.196 77.9149 135.995 76.204C132.794 74.438 130.31 71.9821 128.544 68.8363C126.833 65.6353 125.978 61.9377 125.978 57.7433C125.978 53.6041 126.833 49.9341 128.544 46.7331C130.31 43.4769 132.794 40.9658 135.995 39.1998C139.196 37.4338 142.893 36.5507 147.088 36.5507C149.626 36.5507 152 36.937 154.207 37.7097C156.47 38.4272 158.346 39.4206 159.836 40.6899V16.3516H176.393V77.5285H160.416V73.8861C158.76 75.4866 156.773 76.7007 154.455 77.5285C152.193 78.3564 149.737 78.7703 147.088 78.7703ZM151.558 65.9389C153.434 65.9389 155.09 65.4973 156.525 64.6143C158.015 63.7313 159.119 62.5171 159.836 60.9718V54.432C159.119 52.8867 158.015 51.6725 156.525 50.7895C155.09 49.9065 153.434 49.4649 151.558 49.4649C148.964 49.4649 146.895 50.21 145.349 51.7001C143.859 53.135 143.114 55.1494 143.114 57.7433C143.114 60.3372 143.859 62.3516 145.349 63.7865C146.895 65.2214 148.964 65.9389 151.558 65.9389Z" fill="white"/>
<path d="M317.741 94.2327C315.809 94.2327 313.795 94.0947 311.698 93.8188C309.601 93.5428 308.055 93.1565 307.062 92.6598V80.4078C308.773 81.0701 310.649 81.4012 312.691 81.4012C314.457 81.4012 315.809 81.0149 316.748 80.2423C317.686 79.5248 318.431 78.421 318.983 76.9309L319.728 75.0269L302.509 38.1055H319.065L328.503 62.361L337.361 38.1055H354L338.106 78.7522C336.009 84.0503 333.359 87.9411 330.158 90.4246C326.957 92.9633 322.818 94.2327 317.741 94.2327Z" fill="white"/>
<path d="M255.031 38.1053H271.008V41.7478C272.664 40.2025 274.651 39.016 276.969 38.1881C279.287 37.3051 281.742 36.8636 284.336 36.8636C288.531 36.8636 292.228 37.7466 295.429 39.5127C298.63 41.2235 301.086 43.6794 302.797 46.8804C304.563 50.0813 305.446 53.779 305.446 57.9734C305.446 62.1125 304.563 65.7826 302.797 68.9836C301.086 72.1845 298.63 74.668 295.429 76.4341C292.228 78.2001 288.531 79.0832 284.336 79.0832C281.853 79.0832 279.48 78.6968 277.217 77.9242C274.954 77.2067 273.078 76.2409 271.588 75.0268V95.971H255.031V38.1053ZM279.866 66.2517C282.46 66.2517 284.502 65.5343 285.992 64.0993C287.537 62.6092 288.31 60.5397 288.31 57.8906C288.31 55.2967 287.537 53.2823 285.992 51.8474C284.502 50.4125 282.46 49.695 279.866 49.695C277.99 49.695 276.306 50.1641 274.816 51.1023C273.381 51.9854 272.305 53.1995 271.588 54.7448V61.2019C272.305 62.7472 273.381 63.989 274.816 64.9272C276.306 65.8102 277.99 66.2517 279.866 66.2517Z" fill="white"/>
<path d="M220.805 79.0832C215.727 79.0832 211.643 77.9242 208.553 75.6062C205.517 73.2331 204 69.8666 204 65.5067C204 61.0364 205.49 57.6422 208.47 55.3243C211.45 52.9512 215.782 51.7646 221.467 51.7646C223.509 51.7646 225.578 51.9854 227.676 52.4269C229.773 52.8684 231.539 53.4203 232.974 54.0826V53.3375C232.974 51.5163 232.063 50.1365 230.242 49.1983C228.476 48.2601 225.992 47.791 222.791 47.791C217.99 47.791 213.575 48.7568 209.546 50.6884V39.761C211.367 38.878 213.74 38.1881 216.665 37.6914C219.59 37.1395 222.709 36.8636 226.02 36.8636C233.691 36.8636 239.541 38.3261 243.57 41.2511C247.599 44.1761 249.613 48.3153 249.613 53.6686V77.8414H233.967V74.6956C232.643 76.0202 230.821 77.0688 228.503 77.8414C226.185 78.6692 223.619 79.0832 220.805 79.0832ZM225.937 69.4803C227.427 69.4803 228.807 69.2043 230.076 68.6524C231.346 68.1005 232.311 67.3831 232.974 66.5001V63.4371C230.932 62.1125 228.614 61.4503 226.02 61.4503C224.475 61.4503 223.26 61.809 222.377 62.5265C221.55 63.2439 221.136 64.2373 221.136 65.5067C221.136 66.7208 221.55 67.6866 222.377 68.4041C223.205 69.1215 224.392 69.4803 225.937 69.4803Z" fill="white"/>
<path d="M191.161 33.635C188.678 33.635 186.608 32.8348 184.952 31.2343C183.297 29.6338 182.469 27.5918 182.469 25.1083C182.469 22.7352 183.297 20.7208 184.952 19.0651C186.663 17.4095 188.733 16.5816 191.161 16.5816C193.589 16.5816 195.631 17.4095 197.287 19.0651C198.998 20.7208 199.853 22.7352 199.853 25.1083C199.853 27.5367 198.998 29.5786 197.287 31.2343C195.631 32.8348 193.589 33.635 191.161 33.635ZM179.903 96.9644C176.481 96.9644 173.666 96.4401 171.459 95.3915V82.2289C173.114 83.0568 175.073 83.4707 177.336 83.4707C179.047 83.4707 180.399 83.0016 181.393 82.0634C182.386 81.1803 182.883 79.8006 182.883 77.9242V38.1053H199.522V79.9938C199.522 85.5679 197.701 89.7898 194.059 92.6597C190.471 95.5295 185.753 96.9644 179.903 96.9644Z" fill="white"/>
<path d="M47.4251 0.596962C48.8037 -0.198988 50.5023 -0.198988 51.8809 0.596963L94.4549 25.1771L72.2322 37.8757C71.7143 37.4625 71.162 37.085 70.5781 36.7479L56.3367 28.5256C52.2008 26.1378 47.1052 26.1378 42.9693 28.5256L28.7279 36.7479C28.144 37.085 27.5917 37.4625 27.0738 37.8757L4.85112 25.1771L47.4251 0.596962Z" fill="white"/>
<path d="M76.9482 45.4448L99.2208 32.7176V80.3756L76.9482 67.6485C77.1545 66.7135 77.2618 65.7488 77.2618 64.7689V48.3244C77.2618 47.3444 77.1545 46.3798 76.9482 45.4448Z" fill="white"/>
<path d="M72.2322 75.2175L94.4549 87.9162L51.8809 112.496C50.5023 113.292 48.8037 113.292 47.4251 112.496L4.85113 87.9162L27.0738 75.2175C27.5917 75.6307 28.144 76.0082 28.7279 76.3454L42.9693 84.5676C47.1052 86.9555 52.2008 86.9555 56.3367 84.5676L70.5781 76.3454C71.162 76.0082 71.7143 75.6307 72.2322 75.2175Z" fill="white"/>
<path d="M22.3578 67.6485L0.0852051 80.3757V32.7176L22.3578 45.4448C22.1515 46.3798 22.0442 47.3444 22.0442 48.3244V64.7689C22.0442 65.7488 22.1515 66.7135 22.3578 67.6485Z" fill="white"/>
<path d="M47.4251 36.2433C48.8037 35.4473 50.5023 35.4473 51.8809 36.2433L66.1223 44.4655C67.5009 45.2615 68.3502 46.7325 68.3502 48.3244V64.7689C68.3502 66.3608 67.5009 67.8318 66.1223 68.6277L51.8809 76.85C50.5023 77.6459 48.8037 77.6459 47.4251 76.85L33.1837 68.6277C31.8051 67.8318 30.9558 66.3608 30.9558 64.7689V48.3244C30.9558 46.7325 31.8051 45.2615 33.1837 44.4655L47.4251 36.2433Z" fill="white"/>
</svg>
