<svg width="32" height="32" viewBox="0 0 32 32" fill="none" xmlns="http://www.w3.org/2000/svg">
<rect width="32" height="32" rx="16" fill="#003E2B"/>
<path d="M15.7994 4.12668C16.0919 3.95777 16.4524 3.95777 16.745 4.12668L25.7798 9.34293L21.0638 12.0378C20.9539 11.9501 20.8367 11.87 20.7128 11.7984L17.6905 10.0535C16.8128 9.54681 15.7315 9.54681 14.8538 10.0535L11.8316 11.7984C11.7076 11.87 11.5904 11.9501 11.4805 12.0378L6.76457 9.34293L15.7994 4.12668Z" fill="white"/>
<path d="M22.0646 13.644L26.7912 10.9431V21.0569L22.0646 18.356C22.1084 18.1575 22.1311 17.9528 22.1311 17.7449V14.2551C22.1311 14.0472 22.1084 13.8425 22.0646 13.644Z" fill="white"/>
<path d="M21.0638 19.9622L25.7798 22.6571L16.745 27.8733C16.4524 28.0422 16.0919 28.0422 15.7994 27.8733L6.76457 22.6571L11.4805 19.9622C11.5904 20.0499 11.7076 20.13 11.8316 20.2016L14.8538 21.9465C15.7315 22.4532 16.8128 22.4532 17.6905 21.9465L20.7128 20.2016C20.8367 20.13 20.9539 20.0499 21.0638 19.9622Z" fill="white"/>
<path d="M10.4797 18.356L5.75317 21.0569V10.9431L10.4797 13.644C10.436 13.8425 10.4132 14.0472 10.4132 14.2551V17.7449C10.4132 17.9528 10.436 18.1575 10.4797 18.356Z" fill="white"/>
<path d="M15.7994 11.6913C16.0919 11.5224 16.4524 11.5224 16.745 11.6913L19.7672 13.4362C20.0597 13.6051 20.24 13.9173 20.24 14.2551V17.7449C20.24 18.0827 20.0597 18.3949 19.7672 18.5638L16.745 20.3087C16.4524 20.4776 16.0919 20.4776 15.7994 20.3087L12.7772 18.5638C12.4846 18.3949 12.3044 18.0827 12.3044 17.7449V14.2551C12.3044 13.9173 12.4846 13.6051 12.7772 13.4362L15.7994 11.6913Z" fill="white"/>
</svg>
