<svg width="40" height="" viewBox="0 0 100 120" fill="none" xmlns="http://www.w3.org/2000/svg">
    <path d="M47.4251 0.596962C48.8037 -0.198988 50.5023 -0.198988 51.8809 0.596963L94.4549 25.1771L72.2322 37.8757C71.7143 37.4625 71.162 37.085 70.5781 36.7479L56.3367 28.5256C52.2008 26.1378 47.1052 26.1378 42.9693 28.5256L28.7279 36.7479C28.144 37.085 27.5917 37.4625 27.0738 37.8757L4.85112 25.1771L47.4251 0.596962Z"
          fill="white"/>
    <path d="M76.9482 45.4448L99.2208 32.7176V80.3756L76.9482 67.6485C77.1545 66.7135 77.2618 65.7488 77.2618 64.7689V48.3244C77.2618 47.3444 77.1545 46.3798 76.9482 45.4448Z"
          fill="white"/>
    <path d="M72.2322 75.2175L94.4549 87.9162L51.8809 112.496C50.5023 113.292 48.8037 113.292 47.4251 112.496L4.85113 87.9162L27.0738 75.2175C27.5917 75.6307 28.144 76.0082 28.7279 76.3454L42.9693 84.5676C47.1052 86.9555 52.2008 86.9555 56.3367 84.5676L70.5781 76.3454C71.162 76.0082 71.7143 75.6307 72.2322 75.2175Z"
          fill="white"/>
    <path d="M22.3578 67.6485L0.0852051 80.3757V32.7176L22.3578 45.4448C22.1515 46.3798 22.0442 47.3444 22.0442 48.3244V64.7689C22.0442 65.7488 22.1515 66.7135 22.3578 67.6485Z"
          fill="white"/>
    <path d="M47.4251 36.2433C48.8037 35.4473 50.5023 35.4473 51.8809 36.2433L66.1223 44.4655C67.5009 45.2615 68.3502 46.7325 68.3502 48.3244V64.7689C68.3502 66.3608 67.5009 67.8318 66.1223 68.6277L51.8809 76.85C50.5023 77.6459 48.8037 77.6459 47.4251 76.85L33.1837 68.6277C31.8051 67.8318 30.9558 66.3608 30.9558 64.7689V48.3244C30.9558 46.7325 31.8051 45.2615 33.1837 44.4655L47.4251 36.2433Z"
          fill="white"/>
</svg>
